<?xml version="1.0" encoding="utf-8"?>
<!-- Generator: Adobe Illustrator 26.5.0, SVG Export Plug-In . SVG Version: 6.00 Build 0)  -->
<svg version="1.1" id="Layer_1" xmlns="http://www.w3.org/2000/svg" xmlns:xlink="http://www.w3.org/1999/xlink" x="0px" y="0px"
	 viewBox="0 0 1783.3 636.3" style="enable-background:new 0 0 1783.3 636.3;" xml:space="preserve">
<style type="text/css">
	.st0{fill:#FFFFFF;}
	.st1{fill:#EB3FC7;}
</style>
<g>
	<path class="st0" d="M544,447.5c5.7,46.6,39.4,83.9,86,94.6c47.3,10.9,91.4,1.5,132.5-23.5c7-4.2,13.9-7,21.7-3.7
		c3.7,1.6,7.4,4.3,9.7,7.6c12.4,17.4,24.3,35.2,36.3,52.8c0.3,0.4,0.5,1,0.8,1.7c-10.9,10.2-23.1,18.6-36.1,25.7
		c-29,15.9-60,25.3-92.6,30.1c-26.8,4-53.7,4.7-80.6,1.6c-96.5-11.3-172-74.3-191.1-171.9c-10.6-54.2-5.9-106.9,19.3-156.6
		c32.7-64.4,85.4-103.1,156.5-115.8c46.4-8.3,91.7-3.9,134.7,16.3c51.5,24.2,85.2,64.8,104.8,117.5c12.1,32.4,16.7,66.2,16.6,100.7
		c0,14.5-9,22.9-24.1,22.9c-83.6,0-167.2,0-250.8,0c-12.9,0-25.7,0-38.6,0C547.3,447.5,545.8,447.5,544,447.5z M752.5,370.7
		c0-1.1,0.2-1.9,0.1-2.7c-3.5-30.1-15.8-55.5-41.1-73.2c-26.8-18.7-57-22-88.2-16c-39.2,7.5-63.4,32.5-76,69.5
		c-2.5,7.2-3.8,14.7-5.7,22.5C612.5,370.7,682.4,370.7,752.5,370.7z"/>
	<path class="st0" d="M1501.7,411.4c-12.6-16.7-25-33.2-37.4-49.7c-32.3-42.8-64.4-85.8-96.9-128.5c-10.3-13.5-5.4-27,2.9-32
		c4.1-2.4,9.4-4,14.1-4.1c31.3-0.3,62.6-0.2,93.9,0c1.8,0,4.2,1.4,5.3,2.9c28.7,37.8,57.2,75.8,85.8,113.7c0.9,1.2,1.8,2.3,3,3.8
		c14.8-19.7,29.3-38.9,43.8-58.2c14.7-19.5,29.4-39,44-58.6c2.1-2.8,4.2-3.8,7.7-3.8c30.5,0.1,60.9-0.1,91.4,0.2
		c4.8,0,10.2,1.2,14.3,3.6c10,5.7,12.7,19.3,5.8,28.9c-12,16.7-24.5,33-36.8,49.4c-32.4,43.1-64.8,86.2-97.3,129.1
		c-2,2.7-1.7,4.3,0.2,6.8c43.9,58.2,87.6,116.5,131.7,174.6c7.6,10,6.7,22,1.1,28.4c-4.6,5.2-10.3,7.6-17,7.6
		c-31.9,0.1-63.7,0.1-95.6-0.1c-1.8,0-4-1.8-5.2-3.3c-23.4-30.9-46.8-62-70.1-93c-5.9-7.8-11.8-15.6-18-23.9c-1,1.3-1.9,2.3-2.7,3.3
		c-28.6,37.9-57.2,75.8-85.7,113.8c-1.7,2.2-3.3,3.3-6.2,3.3c-31-0.1-62.1,0-93.1-0.1c-11.8,0-20-5.8-22.7-16
		c-2-7.6,0.7-13.9,5.2-19.8c13-17.1,25.9-34.3,38.8-51.5c31.2-41.4,62.3-82.8,93.5-124.2C1500.3,413.4,1500.9,412.6,1501.7,411.4z"
		/>
	<path class="st0" d="M943.8,625.5c0-1.8,0-3.3,0-4.8c0-188,0-376.1,0-564.1c0-11.8,5.1-19.4,14.8-22c1.9-0.5,3.9-0.7,5.8-0.7
		c29.8,0,59.6,0,89.3,0c0.8,0,1.6,0.1,2.9,0.2c0,1.7,0,3.2,0,4.7c0,188-0.1,376,0.1,564.1c0,12.9-8,23-22.8,22.9
		c-28.5-0.3-57-0.1-85.5-0.1C946.9,625.8,945.5,625.6,943.8,625.5z"/>
	<path class="st0" d="M140.1,411.4c-12.7-16.9-25.2-33.5-37.8-50.2C70.3,318.6,38.2,276,6.1,233.4c-4.6-6.1-7.3-12.6-5.5-20.2
		c2.3-9.8,10.3-16.2,21.2-16.2c31.9-0.2,63.7-0.1,95.6,0.1c1.7,0,3.8,1.5,4.9,3c36.5,48.4,73,96.8,109.4,145.2
		c15.8,21,31.5,42,47.4,62.9c2,2.6,1.9,4.2,0,6.8c-52.2,69.2-104.4,138.5-156.5,207.9c-1.7,2.2-3.5,3.1-6.3,3.1
		c-30.9-0.1-61.8,0-92.7-0.1c-11.9,0-20.1-5.6-22.9-15.8c-2.1-7.7,0.5-14.1,5.1-20.2c13.7-18,27.3-36.1,40.9-54.2
		c30.2-40.2,60.5-80.3,90.7-120.5C138.3,414,139.1,412.9,140.1,411.4z"/>
	<path class="st0" d="M1281.1,197c0,2.2,0,3.7,0,5.2c0,133.5,0,267,0,400.6c0,15-7.9,22.9-23.1,23c-28.4,0-56.8-0.1-85.1,0.1
		c-3.8,0-4.9-0.9-4.9-4.9c0.1-133.7,0.1-267.3,0.1-401c0-14.8,8-22.9,22.7-23c28.5,0,57,0,85.5,0C1277.7,197,1279,197,1281.1,197z"
		/>
	<path class="st0" d="M304,381.6c-23.7-31.5-47.1-62.6-70.6-93.8c10.7-14.2,21.1-28.1,31.6-42c11.5-15.3,23.1-30.5,34.5-45.9
		c1.6-2.1,3.3-2.9,5.9-2.9c31.2,0.1,62.3,0,93.5,0.1c16.6,0.1,27.3,14.4,21.5,28.7c-1.1,2.7-2.8,5.2-4.5,7.5
		c-36.7,48.8-73.4,97.5-110.1,146.3C305.3,380,304.9,380.5,304,381.6z"/>
	<path class="st0" d="M304.4,441.7c12.8,17,25.5,33.8,38.1,50.7c24.5,32.6,49,65.1,73.5,97.7c7.6,10.1,7.7,20.4,0.3,28.6
		c-4.5,5-10.3,7.1-16.8,7.1c-31.7,0.1-63.5,0.1-95.2-0.1c-1.5,0-3.5-1.1-4.4-2.3c-21.7-28.6-43.3-57.3-64.8-86
		c-0.7-0.9-0.8-3.3-0.2-4.2c22.5-30.1,45.1-60.1,67.7-90.1C303.1,442.7,303.7,442.3,304.4,441.7z"/>
	<path class="st1" d="M1291.1,67c-0.1,37.3-29.9,66.9-67.3,66.8c-36.7-0.2-66.5-30.5-66.6-67.3C1157.1,30,1189.1-0.7,1226,0
		C1261.5,0.7,1291.1,30.7,1291.1,67z"/>
</g>
</svg>
